<svg xmlns="http://www.w3.org/2000/svg" viewBox="0 0 64 64">
  <defs>
    <linearGradient id="grad" x1="0%" y1="0%" x2="100%" y2="100%">
      <stop offset="0%" stop-color="#4f46e5"/>
      <stop offset="100%" stop-color="#06b6d4"/>
    </linearGradient>
  </defs>

  <rect x="4" y="4" width="56" height="56" rx="14" fill="url(#grad)"/>

  <g fill="none" stroke="#f9fafb" stroke-width="3" stroke-linecap="round" stroke-linejoin="round">
    <path d="M18 22h10a4 4 0 0 1 4 4v16c-1.2-1.3-3.1-2-5-2h-9a3 3 0 0 0-3 3V26a4 4 0 0 1 3-4z"/>
    <path d="M32 26c-1.2-1.3-3.1-2-5-2h-9"/>

    <path d="M34 30l4-3h2v10h-2l-4-3z" fill="#f9fafb"/>
    <path d="M43 29.5a4.5 4.5 0 0 1 0 7"/>
    <path d="M46 27a7.5 7.5 0 0 1 0 12"/>
  </g>
</svg>
